<svg width="14" height="13" viewBox="0 0 14 13" fill="none" xmlns="http://www.w3.org/2000/svg">
<path fill-rule="evenodd" clip-rule="evenodd" d="M13.3645 11.297L10.6848 8.61738C11.3306 7.68514 11.6536 6.64589 11.6536 5.50017C11.6536 4.75538 11.509 4.04307 11.2198 3.3634C10.9309 2.68363 10.5402 2.09771 10.048 1.60552C9.55581 1.11333 8.96998 0.722652 8.29036 0.433635C7.61051 0.144536 6.89826 0 6.15348 0C5.40876 0 4.69646 0.144536 4.0168 0.433635C3.33704 0.722652 2.75113 1.11333 2.25894 1.60552C1.7667 2.09771 1.37609 2.68374 1.08704 3.3634C0.797976 4.04315 0.653442 4.75538 0.653442 5.50017C0.653442 6.2449 0.797976 6.95696 1.08704 7.63682C1.37606 8.31648 1.7667 8.90232 2.25894 9.39451C2.75113 9.88687 3.33715 10.2774 4.0168 10.5666C4.69654 10.8556 5.40876 11.0001 6.15348 11.0001C7.29944 11.0001 8.33852 10.677 9.27079 10.0313L11.9505 12.7031C12.138 12.901 12.372 13 12.6535 13C12.9243 13 13.1588 12.901 13.3566 12.7031C13.5544 12.5053 13.6534 12.2709 13.6534 12.0001C13.6535 11.7242 13.5572 11.4897 13.3645 11.297ZM8.62601 7.97253C7.94114 8.65752 7.11698 9 6.15336 9C5.1899 9 4.36575 8.65744 3.68082 7.97253C2.99589 7.28765 2.65344 6.46359 2.65344 5.49996C2.65344 4.53649 2.99598 3.71219 3.68082 3.02739C4.36561 2.34243 5.1899 2 6.15336 2C7.11687 2 7.94103 2.34256 8.62601 3.02739C9.31099 3.71219 9.65344 4.53649 9.65344 5.49996C9.65344 6.46359 9.31088 7.28765 8.62601 7.97253Z" fill="#262527"/>
</svg>
